<mxfile host="app.diagrams.net" modified="2022-03-24T08:20:33.918Z" agent="5.0 (X11; Linux x86_64) AppleWebKit/537.36 (KHTML, like Gecko) Chrome/95.0.4638.54 Safari/537.36" etag="BInCBJVmkDAPFOERRVWS" version="17.1.2" type="github">
  <diagram id="Vm7PI8PtoBJdbYvuWfQc" name="Page-1">
    <mxGraphModel dx="731" dy="375" grid="1" gridSize="10" guides="1" tooltips="1" connect="1" arrows="1" fold="1" page="1" pageScale="1" pageWidth="827" pageHeight="1169" math="0" shadow="0">
      <root>
        <mxCell id="0" />
        <mxCell id="1" parent="0" />
        <mxCell id="iQmmxvbvWwsZ9ZQEgWM5-15" value="" style="edgeStyle=orthogonalEdgeStyle;rounded=0;orthogonalLoop=1;jettySize=auto;html=1;" edge="1" parent="1" source="iQmmxvbvWwsZ9ZQEgWM5-13" target="iQmmxvbvWwsZ9ZQEgWM5-14">
          <mxGeometry relative="1" as="geometry" />
        </mxCell>
        <mxCell id="iQmmxvbvWwsZ9ZQEgWM5-13" value="PCF (direct style)" style="rounded=0;whiteSpace=wrap;html=1;" vertex="1" parent="1">
          <mxGeometry x="210" y="190" width="120" height="60" as="geometry" />
        </mxCell>
        <mxCell id="iQmmxvbvWwsZ9ZQEgWM5-17" value="" style="edgeStyle=orthogonalEdgeStyle;rounded=0;orthogonalLoop=1;jettySize=auto;html=1;" edge="1" parent="1" source="iQmmxvbvWwsZ9ZQEgWM5-14" target="iQmmxvbvWwsZ9ZQEgWM5-16">
          <mxGeometry relative="1" as="geometry" />
        </mxCell>
        <mxCell id="iQmmxvbvWwsZ9ZQEgWM5-14" value="CPS" style="rounded=0;whiteSpace=wrap;html=1;" vertex="1" parent="1">
          <mxGeometry x="360" y="190" width="120" height="60" as="geometry" />
        </mxCell>
        <mxCell id="iQmmxvbvWwsZ9ZQEgWM5-19" value="" style="edgeStyle=orthogonalEdgeStyle;rounded=0;orthogonalLoop=1;jettySize=auto;html=1;" edge="1" parent="1" source="iQmmxvbvWwsZ9ZQEgWM5-16" target="iQmmxvbvWwsZ9ZQEgWM5-18">
          <mxGeometry relative="1" as="geometry" />
        </mxCell>
        <mxCell id="iQmmxvbvWwsZ9ZQEgWM5-16" value="SSA" style="rounded=0;whiteSpace=wrap;html=1;" vertex="1" parent="1">
          <mxGeometry x="510" y="190" width="120" height="60" as="geometry" />
        </mxCell>
        <mxCell id="iQmmxvbvWwsZ9ZQEgWM5-18" value="LLVM IR" style="rounded=0;whiteSpace=wrap;html=1;" vertex="1" parent="1">
          <mxGeometry x="660" y="190" width="120" height="60" as="geometry" />
        </mxCell>
      </root>
    </mxGraphModel>
  </diagram>
</mxfile>
